<svg width="48" height="48" viewBox="0 0 48 48" fill="none" xmlns="http://www.w3.org/2000/svg">
<path d="M9.04689 37.3125C9.04689 38.1422 9.7172 38.8125 10.5469 38.8125H37.4531C38.2828 38.8125 38.9531 38.1422 38.9531 37.3125V26.3906C38.9531 18.1313 32.2594 11.4375 24 11.4375C15.7406 11.4375 9.04689 18.1313 9.04689 26.3906V37.3125ZM12.4219 26.3906C12.4219 19.9969 17.6063 14.8125 24 14.8125C30.3938 14.8125 35.5781 19.9969 35.5781 26.3906V35.4375H18.9375V27.4219C18.9375 27.1641 18.7266 26.9531 18.4688 26.9531H16.4063C16.1485 26.9531 15.9375 27.1641 15.9375 27.4219V35.4375H12.4219V26.3906ZM10.1672 14.5547L12.0235 12.6984C12.1688 12.5531 12.1688 12.3141 12.0235 12.1688L8.84064 8.98594C8.77016 8.91615 8.67498 8.877 8.5758 8.877C8.47661 8.877 8.38143 8.91615 8.31095 8.98594L6.4547 10.8422C6.38491 10.9127 6.34576 11.0078 6.34576 11.107C6.34576 11.2062 6.38491 11.3014 6.4547 11.3719L9.63751 14.5547C9.78283 14.7 10.0172 14.7 10.1672 14.5547ZM41.5547 10.8422L39.6985 8.98594C39.628 8.91615 39.5328 8.877 39.4336 8.877C39.3344 8.877 39.2392 8.91615 39.1688 8.98594L35.986 12.1688C35.9162 12.2392 35.877 12.3344 35.877 12.4336C35.877 12.5328 35.9162 12.628 35.986 12.6984L37.8422 14.5547C37.9875 14.7 38.2266 14.7 38.3719 14.5547L41.5547 11.3719C41.7 11.2219 41.7 10.9875 41.5547 10.8422ZM39 41.8125H9.00001C8.17033 41.8125 7.50001 42.4828 7.50001 43.3125V44.4375C7.50001 44.6437 7.66876 44.8125 7.87501 44.8125H40.125C40.3313 44.8125 40.5 44.6437 40.5 44.4375V43.3125C40.5 42.4828 39.8297 41.8125 39 41.8125ZM22.6875 8.4375H25.3125C25.5188 8.4375 25.6875 8.26875 25.6875 8.0625V3.5625C25.6875 3.35625 25.5188 3.1875 25.3125 3.1875H22.6875C22.4813 3.1875 22.3125 3.35625 22.3125 3.5625V8.0625C22.3125 8.26875 22.4813 8.4375 22.6875 8.4375Z" fill="white"/>
</svg>
