<svg width="240" height="240" viewBox="0 0 240 240" fill="none" xmlns="http://www.w3.org/2000/svg">
<path d="M181.381 174.958C183.864 172.398 181.465 168.334 177.907 168.609C175.749 168.776 173.568 168.861 171.366 168.861C125.154 168.861 87.6917 131.428 87.6917 85.252C87.6917 71.0498 91.2356 57.6746 97.488 45.9612C99.1698 42.8104 96.398 38.9833 93.0558 40.248C61.9024 52.036 39.75 82.1641 39.75 117.47C39.75 163.05 76.6703 200 122.214 200C145.424 200 166.395 190.403 181.381 174.958Z" fill="#303030" fill-opacity="0.7"/>
<path fill-rule="evenodd" clip-rule="evenodd" d="M147.439 64.7665C147.038 64.1955 146.52 63.3506 144.955 61.1587C144.987 61.1913 137.46 51.5208 137.46 51.5208C136.534 50.3309 136.768 50.1325 137.973 51.07C137.973 51.07 147.575 58.5382 147.575 58.5382C149.729 60.0763 150.595 60.6166 151.174 61.0221C151.745 60.6218 152.59 60.1038 154.782 58.5382C154.749 58.5708 164.42 51.0432 164.42 51.0432C165.61 50.1171 165.808 50.3514 164.87 51.5567C164.87 51.5567 157.402 61.1587 157.402 61.1587C155.864 63.312 155.324 64.1787 154.918 64.7573C155.319 65.3283 155.837 66.1732 157.402 68.3651C157.37 68.3325 164.897 78.003 164.897 78.003C165.823 79.1929 165.589 79.3913 164.384 78.4539C164.384 78.4539 154.782 70.9857 154.782 70.9857C152.628 69.4476 151.762 68.9072 151.183 68.5017C150.612 68.902 149.767 69.42 147.575 70.9857C147.608 70.9531 137.937 78.4806 137.937 78.4806C136.748 79.4068 136.549 79.1724 137.487 77.9671C137.487 77.9671 144.955 68.3651 144.955 68.3651C146.493 66.2118 147.033 65.3451 147.439 64.7665V64.7665Z" fill="#E9E9E9"/>
<path fill-rule="evenodd" clip-rule="evenodd" d="M190.178 115.461C190.193 115.476 186.684 110.968 186.684 110.968C186.249 110.409 186.357 110.314 186.919 110.751C186.919 110.751 191.401 114.238 191.401 114.238C192.407 114.956 192.811 115.208 193.081 115.397C193.348 115.21 193.742 114.968 194.765 114.238C194.75 114.253 199.258 110.744 199.258 110.744C199.817 110.309 199.912 110.416 199.475 110.979C199.475 110.979 195.989 115.461 195.989 115.461C195.271 116.466 195.018 116.871 194.829 117.141C195.016 117.407 195.258 117.802 195.989 118.825C195.973 118.81 199.482 123.317 199.482 123.317C199.917 123.876 199.81 123.972 199.248 123.534C199.248 123.534 194.765 120.048 194.765 120.048C193.76 119.33 193.356 119.078 193.086 118.889C192.819 119.075 192.425 119.317 191.401 120.048C191.417 120.033 186.909 123.542 186.909 123.542C186.35 123.977 186.254 123.87 186.692 123.307C186.692 123.307 190.178 118.825 190.178 118.825C190.896 117.82 191.148 117.415 191.338 117.145C191.151 116.878 190.909 116.484 190.178 115.461Z" fill="#E9E9E9"/>
</svg>
