<svg width="240" height="240" viewBox="0 0 240 240" fill="none" xmlns="http://www.w3.org/2000/svg">
<path fill-rule="evenodd" clip-rule="evenodd" d="M194.969 97.5987C194.99 96.9731 195 96.3449 195 95.7143C195 64.9441 170.152 40 139.5 40C115.185 40 94.5218 55.6968 87.0176 77.5468C81.6283 74.7236 75.4999 73.1274 69 73.1274C47.4609 73.1274 30 90.6557 30 112.278C30 126.587 37.6472 139.104 49.0627 145.933C49.1908 144.928 49.5171 143.932 50.0564 143C52.229 139.247 57.0481 137.957 60.8061 140.121C60.8061 140.121 60.95 140.273 62.479 141.042C64.901 139.396 68.1516 139.169 70.8571 140.727C73.5714 142.29 74.9992 145.219 74.7718 148.141C75.6776 148.782 78.2304 150.327 80.0741 151.429H82.1217C82.1173 149.413 82.1162 145.455 82.1699 143.946C79.4859 142.694 77.6256 139.977 77.6256 136.829C77.6256 133.693 79.4677 130.988 82.1323 129.729C82.1448 128.011 82.1254 127.845 82.1254 127.845C82.1254 123.51 85.6567 120 90 120C94.3453 120 97.8746 123.517 97.8746 127.845C97.8746 127.845 97.8955 128.348 97.8566 129.725C100.526 130.982 102.374 133.692 102.374 136.829C102.374 139.93 100.574 142.609 97.958 143.886C97.9074 144.679 97.8858 149.213 97.8782 151.429H99.8827C101.749 150.297 104.366 148.712 105.234 148.194C104.986 145.255 106.415 142.298 109.143 140.727C111.839 139.174 115.072 139.392 117.49 141.019C119.018 140.257 119.194 140.121 119.194 140.121C122.958 137.954 127.772 139.249 129.944 143C131.521 145.726 131.273 149.007 129.58 151.429H137.892L138.615 148.816L150.662 105.28L150.719 105.076C151.198 103.343 152.776 102.143 154.574 102.143H154.895H184.465H184.941C187.752 102.143 189.686 104.966 188.671 107.587L188.569 107.852L181.578 126.506C181.333 127.16 181.816 127.857 182.514 127.857H191.25H191.81C194.633 127.857 196.379 130.933 194.933 133.357L185.454 151.155C199.322 149.223 210 137.273 210 122.818C210 111.908 203.917 102.424 194.969 97.5987Z" fill="#E9E9E9"/>
<path fill-rule="evenodd" clip-rule="evenodd" d="M156.891 107.5C155.986 107.5 155.194 108.108 154.96 108.982L144.247 148.91C143.906 150.181 144.863 151.429 146.179 151.429H160.605C161.803 151.429 162.732 152.475 162.591 153.665L158.884 184.802C158.618 187.036 161.672 187.94 162.665 185.92L187.155 136.097C187.808 134.768 186.841 133.214 185.36 133.214H176.457C175.061 133.214 174.094 131.82 174.585 130.512L182.201 110.202C182.691 108.895 181.725 107.5 180.328 107.5H156.891Z" fill="#FFF686"/>
<path fill-rule="evenodd" clip-rule="evenodd" d="M86.7308 190.869V140.917H85.6447C83.8372 140.917 82.3719 139.455 82.3719 137.659C82.3719 135.86 83.8347 134.402 85.6447 134.402H86.7308V128.964C86.7308 127.169 88.1982 125.714 90 125.714C91.8056 125.714 93.2693 127.178 93.2693 128.964V134.402H94.3554C96.1629 134.402 97.6282 135.864 97.6282 137.659C97.6282 139.458 96.1654 140.917 94.3554 140.917H93.2693V190.869H94.3554C96.1629 190.869 97.6282 192.331 97.6282 194.126C97.6282 195.926 96.1654 197.384 94.3554 197.384H93.2693V202.822C93.2693 204.617 91.8019 206.071 90 206.071C88.1945 206.071 86.7308 204.608 86.7308 202.822V197.384H85.6447C83.8372 197.384 82.3719 195.922 82.3719 194.126C82.3719 192.327 83.8347 190.869 85.6447 190.869H86.7308Z" fill="#E9E9E9"/>
<path fill-rule="evenodd" clip-rule="evenodd" d="M69.9286 150.584L113.341 175.56L113.884 174.622C114.788 173.062 116.791 172.529 118.351 173.427C119.915 174.326 120.451 176.318 119.546 177.88L119.003 178.817L123.729 181.536C125.289 182.433 125.819 184.427 124.919 185.982C124.016 187.54 122.012 188.072 120.46 187.179L115.734 184.46L115.191 185.397C114.287 186.957 112.284 187.49 110.723 186.593C109.16 185.693 108.623 183.701 109.529 182.139L110.072 181.202L66.6594 156.226L66.1163 157.163C65.2126 158.723 63.2091 159.257 61.6487 158.359C60.085 157.459 59.5489 155.468 60.4539 153.906L60.9969 152.968L56.2712 150.25C54.7114 149.352 54.1807 147.359 55.0816 145.804C55.9844 144.245 57.988 143.714 59.5404 144.607L64.2662 147.326L64.8092 146.389C65.713 144.829 67.7164 144.295 69.2769 145.193C70.8405 146.093 71.3767 148.084 70.4717 149.646L69.9286 150.584Z" fill="#E9E9E9"/>
<path fill-rule="evenodd" clip-rule="evenodd" d="M113.341 156.226L69.9286 181.202L70.4716 182.139C71.3754 183.699 70.8373 185.695 69.2768 186.593C67.7132 187.492 65.7142 186.959 64.8091 185.397L64.2661 184.46L59.5403 187.179C57.9806 188.076 55.9825 187.537 55.0815 185.982C54.1788 184.424 54.7187 182.429 56.2711 181.536L60.9969 178.817L60.4538 177.88C59.5501 176.32 60.0882 174.324 61.6486 173.427C63.2123 172.527 65.2113 173.06 66.1163 174.622L66.6593 175.56L110.071 150.584L109.528 149.646C108.625 148.087 109.163 146.091 110.723 145.193C112.287 144.294 114.286 144.827 115.191 146.389L115.734 147.326L120.46 144.607C122.019 143.71 124.018 144.249 124.919 145.804C125.821 147.362 125.281 149.357 123.729 150.25L119.003 152.968L119.546 153.906C120.45 155.466 119.912 157.461 118.351 158.359C116.788 159.259 114.789 158.726 113.884 157.163L113.341 156.226Z" fill="#E9E9E9"/>
</svg>
